<?xml version="1.0" encoding="iso-8859-1"?>
<!-- Generator: Adobe Illustrator 19.0.0, SVG Export Plug-In . SVG Version: 6.00 Build 0)  -->
<svg version="1.1" id="Layer_1" xmlns="http://www.w3.org/2000/svg" xmlns:xlink="http://www.w3.org/1999/xlink" x="0px" y="0px"
	 viewBox="0 0 512 512" style="enable-background:new 0 0 512 512;" xml:space="preserve">
<path style="fill:#E64A55;" d="M472.615,256c0,141.385-96.982,256-216.615,256l-22.505-256L256,0
	C375.634,0,472.615,114.615,472.615,256z"/>
<path style="fill:#ED6350;" d="M256,0v512C136.366,512,39.385,397.385,39.385,256S136.366,0,256,0z"/>
<path style="fill:#AEE6FF;" d="M256,45.011c-94.774,0-171.604,94.463-171.604,210.989h45.011L290.989,49.406
	C279.693,46.529,267.991,45.011,256,45.011z"/>
<path style="fill:#74C8EE;" d="M369.709,97.996H347.34L256,466.989c94.774,0,171.604-94.463,171.604-210.989
	C427.604,193.106,405.215,136.651,369.709,97.996z"/>
<g>
	<path style="fill:#AEE6FF;" d="M393.846,256c0-62.894-17.985-119.349-46.505-158.004h-22.643L106.991,360.715
		c29.58,63.492,85.231,106.274,149.009,106.274C332.13,466.989,393.846,372.526,393.846,256z"/>
	<path style="fill:#AEE6FF;" d="M290.989,49.406l-1.782,1.782l67.141,60.17l13.363-13.363
		C347.755,74.095,320.79,56.996,290.989,49.406z"/>
</g>
<path style="fill:#FFFFFF;" d="M289.207,51.189L84.396,256c0,38.11,8.22,73.857,22.596,104.715l249.356-249.356
	C338.486,82.34,315.314,61.073,289.207,51.189z"/>
<g>
</g>
<g>
</g>
<g>
</g>
<g>
</g>
<g>
</g>
<g>
</g>
<g>
</g>
<g>
</g>
<g>
</g>
<g>
</g>
<g>
</g>
<g>
</g>
<g>
</g>
<g>
</g>
<g>
</g>
</svg>
