<?xml version="1.0" encoding="iso-8859-1"?>
<!-- Generator: Adobe Illustrator 19.0.0, SVG Export Plug-In . SVG Version: 6.00 Build 0)  -->
<svg version="1.1" id="Layer_1" xmlns="http://www.w3.org/2000/svg" xmlns:xlink="http://www.w3.org/1999/xlink" x="0px" y="0px"
	 viewBox="0 0 488.385 488.385" style="enable-background:new 0 0 488.385 488.385;" xml:space="preserve">
<path style="fill:#0A2735;" d="M283.498,157.066c0,12.642-10.256,22.89-22.89,22.89h-40.684c-12.65,0-22.89-10.248-22.89-22.89V40.7
	c0-12.642,10.24-22.89,22.89-22.89h40.684c12.635,0,22.89,10.248,22.89,22.89V157.066z"/>
<path style="fill:#1B4660;" d="M219.924,179.964c-12.65,0-22.89-10.248-22.89-22.89V40.7c0-12.642,10.24-22.89,22.89-22.89"/>
<path style="fill:#B2CDD8;" d="M326.751,259.45c0,12.635-10.256,22.89-22.89,22.89H176.672c-12.635,0-22.89-10.264-22.89-22.89
	V133.545c0-12.642,10.256-22.89,22.89-22.89H303.86c12.635,0,22.89,10.248,22.89,22.89L326.751,259.45L326.751,259.45z"/>
<path style="fill:#93BAC6;" d="M153.781,133.545c0-12.642,10.256-22.89,22.89-22.89H303.86c12.635,0,22.89,10.248,22.89,22.89
	V259.45"/>
<polygon style="fill:#1B4660;" points="347.404,358.085 240.262,384.087 133.128,358.085 117.87,216.765 240.262,172.961 
	362.661,216.765 "/>
<polyline style="fill:#116189;" points="240.262,384.087 133.128,358.085 117.87,216.765 240.262,172.961 "/>
<g>
	<path style="fill:#3BABFF;" d="M462.84,356.99c-11.823,0-22.662-4.104-31.24-10.957c-8.578,6.845-19.417,10.957-31.24,10.957
		c-11.808,0-22.654-4.104-31.232-10.957c-8.578,6.845-19.409,10.957-31.232,10.957c-11.815,0-22.654-4.104-31.232-10.957
		c-8.578,6.845-19.424,10.957-31.24,10.957c-11.808,0-22.662-4.104-31.232-10.957c-8.586,6.845-19.424,10.957-31.232,10.957
		c-11.815,0-22.662-4.104-31.232-10.957c-8.586,6.845-19.424,10.957-31.24,10.957s-22.654-4.104-31.24-10.957
		c-8.57,6.845-19.424,10.957-31.224,10.957c-11.823,0-22.67-4.104-31.24-10.957c-8.57,6.845-19.424,10.957-31.24,10.957
		c-9.35,0-18.062-2.599-25.545-7.058v37.88c7.483,4.443,16.203,7.05,25.545,7.05c11.815,0,22.67-4.104,31.24-10.957
		c8.57,6.845,19.417,10.957,31.24,10.957c11.8,0,22.654-4.104,31.224-10.957c8.586,6.845,19.424,10.957,31.24,10.957
		s22.654-4.104,31.24-10.957c8.57,6.845,19.417,10.957,31.232,10.957c11.808,0,22.646-4.104,31.232-10.957
		c8.57,6.845,19.424,10.957,31.232,10.957c11.815,0,22.662-4.104,31.24-10.957c8.578,6.845,19.417,10.957,31.232,10.957
		c11.815,0,22.654-4.104,31.232-10.957c8.578,6.845,19.424,10.957,31.232,10.957c11.823,0,22.662-4.104,31.24-10.957
		c8.578,6.845,19.417,10.957,31.24,10.957c9.334,0,18.054-2.599,25.545-7.05v-37.88C480.894,354.391,472.166,356.99,462.84,356.99z"
		/>
	<path style="fill:#3BABFF;" d="M431.6,421.762c-8.578,6.829-19.417,10.957-31.24,10.957c-11.808,0-22.654-4.12-31.232-10.957
		c-8.578,6.829-19.409,10.957-31.232,10.957c-11.815,0-22.654-4.12-31.232-10.957c-8.578,6.829-19.424,10.957-31.24,10.957
		c-11.808,0-22.662-4.12-31.232-10.957c-8.586,6.829-19.424,10.957-31.232,10.957c-11.815,0-22.662-4.12-31.232-10.957
		c-8.586,6.829-19.424,10.957-31.24,10.957s-22.654-4.12-31.24-10.957c-8.57,6.829-19.424,10.957-31.224,10.957
		c-11.823,0-22.67-4.12-31.24-10.957c-8.57,6.829-19.424,10.957-31.24,10.957c-9.35,0-18.062-2.615-25.545-7.058v37.864
		c7.483,4.458,16.203,7.05,25.545,7.05c11.815,0,22.67-4.104,31.24-10.957c8.57,6.845,19.417,10.957,31.24,10.957
		c11.8,0,22.654-4.104,31.224-10.957c8.586,6.845,19.424,10.957,31.24,10.957s22.654-4.104,31.24-10.957
		c8.57,6.845,19.417,10.957,31.232,10.957c11.808,0,22.646-4.104,31.232-10.957c8.57,6.845,19.424,10.957,31.232,10.957
		c11.815,0,22.662-4.104,31.24-10.957c8.578,6.845,19.417,10.957,31.232,10.957c11.815,0,22.654-4.104,31.232-10.957
		c8.578,6.845,19.424,10.957,31.232,10.957c11.823,0,22.662-4.104,31.24-10.957c8.578,6.845,19.417,10.957,31.24,10.957
		c9.334,0,18.054-2.584,25.545-7.05v-37.864c-7.491,4.443-16.219,7.058-25.545,7.058C451.017,432.719,440.178,428.591,431.6,421.762
		z"/>
</g>
<path style="fill:#1B4660;" d="M313.068,148.165c0,4.214-3.411,7.633-7.633,7.633H175.096c-4.222,0-7.633-3.419-7.633-7.633l0,0
	c0-4.214,3.411-7.633,7.633-7.633h130.347C309.658,140.532,313.068,143.943,313.068,148.165L313.068,148.165z"/>
<rect x="197.033" y="59.628" style="fill:#FFA70B;" width="86.473" height="18.597"/>
<rect x="197.033" y="59.628" style="fill:#FFDC10;" width="22.89" height="18.597"/>
<g>
	<path style="fill:#1B4660;" d="M150.993,291.241c0,2.458-1.993,4.443-4.45,4.443l0,0c-2.458,0-4.443-1.985-4.443-4.443v-8.263
		c0-2.458,1.985-4.443,4.443-4.443l0,0c2.458,0,4.45,1.985,4.45,4.443V291.241z"/>
	<path style="fill:#1B4660;" d="M183.918,286.287c0,3.679-2.977,6.648-6.656,6.648l0,0c-3.679,0-6.648-2.97-6.648-6.648v-12.351
		c0-3.678,2.97-6.632,6.648-6.632l0,0c3.679,0,6.656,2.954,6.656,6.632V286.287z"/>
</g>
<g>
	<path style="fill:#116189;" d="M329.539,291.241c0,2.458,1.993,4.443,4.443,4.443l0,0c2.458,0,4.45-1.985,4.45-4.443v-8.263
		c0-2.458-1.993-4.443-4.45-4.443l0,0c-2.458,0-4.443,1.985-4.443,4.443V291.241z"/>
	<path style="fill:#116189;" d="M296.613,286.287c0,3.679,2.977,6.648,6.656,6.648l0,0c3.671,0,6.648-2.97,6.648-6.648v-12.351
		c0-3.678-2.977-6.632-6.648-6.632l0,0c-3.678,0-6.656,2.954-6.656,6.632V286.287z"/>
</g>
<g>
</g>
<g>
</g>
<g>
</g>
<g>
</g>
<g>
</g>
<g>
</g>
<g>
</g>
<g>
</g>
<g>
</g>
<g>
</g>
<g>
</g>
<g>
</g>
<g>
</g>
<g>
</g>
<g>
</g>
</svg>
