<?xml version="1.0" encoding="iso-8859-1"?>
<!-- Generator: Adobe Illustrator 19.0.0, SVG Export Plug-In . SVG Version: 6.00 Build 0)  -->
<svg version="1.1" id="Layer_1" xmlns="http://www.w3.org/2000/svg" xmlns:xlink="http://www.w3.org/1999/xlink" x="0px" y="0px"
	 viewBox="0 0 242.999 242.999" style="enable-background:new 0 0 242.999 242.999;" xml:space="preserve">
<g>
	<path style="fill:#F59D00;" d="M113.68,209.957L113.68,209.957c-37.954,0-69.721-28.785-73.45-66.556l-3.965-40.164h154.829
		l-3.965,40.164C183.401,181.171,151.634,209.957,113.68,209.957z"/>
	<path style="fill:#F59D00;" d="M192.182,209.957H35.178c-7.053,0-12.772,5.718-12.772,12.772l0,0
		c0,7.054,5.718,12.772,12.772,12.772h157.004c7.054,0,12.772-5.718,12.772-12.772l0,0
		C204.954,215.675,199.236,209.957,192.182,209.957z"/>
	<g>
		<path style="fill:#414042;" d="M187.856,169.573c21.907,1.906,40.235-15.427,40.235-36.839c0-20.4-16.597-36.997-36.997-36.997
			H36.266c-4.433,0-7.899,3.83-7.464,8.236l3.964,40.164c2.401,24.319,15.191,45.143,33.731,58.32H35.178
			c-11.178,0-20.271,9.094-20.271,20.271c0,11.178,9.094,20.271,20.271,20.271h157.004c11.179,0,20.272-9.094,20.272-20.271
			c0-11.178-9.094-20.271-20.272-20.271h-31.318C172.518,194.173,181.902,182.874,187.856,169.573z M213.092,132.733
			c0,11.537-8.93,21.021-20.239,21.921c1.588-6.872,1.462-7.688,4.936-42.873C206.654,114.62,213.092,122.938,213.092,132.733z
			 M192.182,217.457c2.907,0,5.272,2.365,5.272,5.271c0,2.906-2.365,5.271-5.272,5.271H35.178c-2.907,0-5.271-2.365-5.271-5.271
			c0-2.906,2.365-5.271,5.271-5.271H192.182z M113.68,202.457c-34.254,0-62.621-25.706-65.986-59.793l-3.151-31.928H182.82
			l-3.152,31.928C176.34,176.357,148.287,202.457,113.68,202.457L113.68,202.457z"/>
		<path style="fill:#414042;" d="M85.332,74.078c4.142,0,7.5-3.357,7.5-7.5V30.235c0-4.143-3.358-7.5-7.5-7.5s-7.5,3.357-7.5,7.5
			v36.343C77.832,70.721,81.19,74.078,85.332,74.078z"/>
		<path style="fill:#414042;" d="M113.68,74.078c4.142,0,7.5-3.357,7.5-7.5V7.5c0-4.143-3.358-7.5-7.5-7.5s-7.5,3.357-7.5,7.5
			v59.078C106.18,70.721,109.538,74.078,113.68,74.078z"/>
		<path style="fill:#414042;" d="M142.027,74.078c4.143,0,7.5-3.357,7.5-7.5V30.235c0-4.143-3.357-7.5-7.5-7.5s-7.5,3.357-7.5,7.5
			v36.343C134.527,70.721,137.885,74.078,142.027,74.078z"/>
	</g>
</g>
<g>
</g>
<g>
</g>
<g>
</g>
<g>
</g>
<g>
</g>
<g>
</g>
<g>
</g>
<g>
</g>
<g>
</g>
<g>
</g>
<g>
</g>
<g>
</g>
<g>
</g>
<g>
</g>
<g>
</g>
</svg>
