<?xml version="1.0" encoding="iso-8859-1"?>
<!-- Generator: Adobe Illustrator 19.0.0, SVG Export Plug-In . SVG Version: 6.00 Build 0)  -->
<svg version="1.1" id="Layer_1" xmlns="http://www.w3.org/2000/svg" xmlns:xlink="http://www.w3.org/1999/xlink" x="0px" y="0px"
	 viewBox="0 0 511.999 511.999" style="enable-background:new 0 0 511.999 511.999;" xml:space="preserve">
<path style="fill:#EEBF00;" d="M280.523,295.133l-10.3,202.865c-0.243,7.552-6.434,13.548-13.99,13.548l0,0
	c-7.556,0-13.748-5.996-13.99-13.548l-10.3-202.865v-31.923h48.582v31.923H280.523z"/>
<path style="opacity:0.24;fill:#494949;enable-background:new    ;" d="M270.311,263.664v19.153l-10.3,202.864
	c-0.243,7.552-6.434,13.548-13.99,13.548c-1.261,0-2.48-0.181-3.643-0.494c0.388,7.416,6.507,13.264,13.967,13.264
	c7.556,0,13.748-5.996,13.99-13.548l10.3-202.865v-31.923h-10.323V263.664z"/>
<path style="fill:#FF0C38;" d="M311.875,189.265H199.14c-1.955,0-3.775-0.989-4.821-2.641
	C185.322,172.411,148.828,101.861,233.562,0c0,0-8.503,39.472,10.93,63.763c0,0,5.264-25.302,36.639-45.545
	c0,0,5.798,33.89,24.29,63.763c22.073,35.657,14.949,86.983,12.079,102.601C317.001,187.299,314.638,189.265,311.875,189.265z"/>
<path style="fill:#EEBF00;" d="M318.44,235.822H193.092c-7.87,0-14.308-6.439-14.308-14.308v-0.735
	c0-7.87,6.439-14.308,14.308-14.308H318.44c7.87,0,14.308,6.439,14.308,14.308v0.735C332.748,229.384,326.31,235.822,318.44,235.822
	z"/>
<path style="opacity:0.24;fill:#494949;enable-background:new    ;" d="M333.215,220.779v0.735c0,7.87-6.439,14.308-14.308,14.308
	H193.559c-7.87,0-14.308-6.439-14.308-14.308v-0.735H333.215z"/>
<path style="fill:#EEBF00;" d="M315.543,235.822L315.543,235.822c0,32.621-26.689,59.31-59.31,59.31l0,0
	c-32.621,0-59.31-26.689-59.31-59.31l0,0H315.543z"/>
<path style="opacity:0.24;fill:#494949;enable-background:new    ;" d="M300.921,235.822c-6.574,25.583-29.898,44.635-57.459,44.635
	l0,0c-14.299,0-27.456-5.13-37.729-13.637c10.47,16.952,29.218,28.313,50.497,28.313l0,0c32.621,0,59.31-26.689,59.31-59.31l0,0
	H300.921z"/>
<path style="fill:#C70024;" d="M233.562,0c-84.734,101.861-48.238,172.411-39.243,186.624c1.046,1.652,2.866,2.641,4.821,2.641
	h67.554C170.719,126.9,233.562,0,233.562,0z"/>
<g>
</g>
<g>
</g>
<g>
</g>
<g>
</g>
<g>
</g>
<g>
</g>
<g>
</g>
<g>
</g>
<g>
</g>
<g>
</g>
<g>
</g>
<g>
</g>
<g>
</g>
<g>
</g>
<g>
</g>
</svg>
