<?xml version="1.0" encoding="iso-8859-1"?>
<!-- Generator: Adobe Illustrator 19.0.0, SVG Export Plug-In . SVG Version: 6.00 Build 0)  -->
<svg version="1.1" id="Layer_1" xmlns="http://www.w3.org/2000/svg" xmlns:xlink="http://www.w3.org/1999/xlink" x="0px" y="0px"
	 viewBox="0 0 386.5 386.5" style="enable-background:new 0 0 386.5 386.5;" xml:space="preserve">
<g>
	<g>
		<polygon style="fill:#37495E;" points="381.25,386.5 288.75,294 97.75,294 5.25,386.5 		"/>
		<polygon style="fill:#EFEFEF;" points="334.25,386.5 245.75,296 140.75,296 52.25,386.5 		"/>
		<rect x="95.96" y="317" style="fill:#37495E;" width="196.438" height="16"/>
		<rect x="46.75" y="354" style="fill:#37495E;" width="289" height="16"/>
	</g>
	<path style="fill:#3E81C8;" d="M273.75,297h-161c-20.435,0-37-16.565-37-37V37c0-20.434,16.565-37,37-37h161
		c20.435,0,37,16.566,37,37v223C310.75,280.435,294.185,297,273.75,297z"/>
	<rect x="115.75" y="40" style="fill:#EFEFEF;" width="155" height="138"/>
	<circle style="fill:#F8A805;" cx="129.25" cy="239" r="20"/>
	<circle style="fill:#F8A805;" cx="257.25" cy="239" r="20"/>
	
		<rect x="144.553" y="5.216" transform="matrix(0.7071 0.7071 -0.7071 0.7071 101.9961 -85.0735)" style="fill:#3E81C8;" width="18.276" height="150.735"/>
	
		<rect x="169.11" y="-6.098" transform="matrix(0.7071 0.7071 -0.7071 0.7071 125.7464 -95.5795)" style="fill:#3E81C8;" width="18.276" height="220.195"/>
</g>
<g>
</g>
<g>
</g>
<g>
</g>
<g>
</g>
<g>
</g>
<g>
</g>
<g>
</g>
<g>
</g>
<g>
</g>
<g>
</g>
<g>
</g>
<g>
</g>
<g>
</g>
<g>
</g>
<g>
</g>
</svg>
