<?xml version="1.0"?><svg width="1000" height="1000" xmlns="http://www.w3.org/2000/svg">
 <title>Football Helmet</title>

 <metadata id="metadata4268">image/svg+xmlFootball Helmet2010-09-25Jason M. SimanekPublic DomainA standard American Football Helmet with a white and red color scheme.football helmet</metadata>
 <g>
  <title>Layer 1</title>
  <g id="layer3" display="inline">
   <path d="m935.425964,821.488892c7.932922,1.931824 18.510193,-12.234558 19.832336,-30.264404c1.322205,-18.029907 3.966492,-62.460693 3.966492,-98.520447c0,-36.059814 -5.288635,-76.627075 -9.255127,-92.081177c-3.966431,-15.454224 -21.510559,-32.684265 -27.104187,-18.673828c-4.627563,11.590637 0.924988,13.5224 4.891418,30.264465c3.966492,16.742004 11.635559,56.021362 11.635559,99.808289c0,43.786804 -1.983276,63.748535 -1.983276,74.69519c0,10.946716 -7.932922,9.014954 -9.916138,11.590637c-1.983276,2.575745 -5.288635,7.083191 -4.627563,12.87854c0.661072,5.795288 12.560486,10.302734 12.560486,10.302734z" id="path3782" fill="#000000"/>
   <path d="m709.88916,388.163177c6.55957,16.328308 37.899597,98.67981 44.459167,121.397461c6.55957,22.717682 6.758057,22.672821 10.203735,29.816925c1.641479,3.40332 4.87262,4.67041 11.661438,4.969482c10.945679,0.4823 44.459167,0 72.155029,2.839722c27.695923,2.839661 48.241394,8.12384 62.226685,16.700806c13.985229,8.577087 24.862671,21.694885 27.452515,28.253784c2.589844,6.55896 -3.625793,9.586121 -9.841492,8.07251c-6.215637,-1.51355 -10.87738,-6.054321 -17.093079,-12.108765c-6.215637,-6.054321 -26.934509,-16.144958 -55.423035,-19.676758c-28.488464,-3.531677 -75.105957,-6.558899 -77.177856,-6.558899c-2.071899,0 -3.625793,-0.504517 -3.107788,4.540771c0.517944,5.045349 3.625793,16.14502 5.179688,19.172241c1.553894,3.027222 1.553894,4.036255 10.359436,4.036255c8.805542,0 56.976929,4.036255 71.480164,5.045288c14.503235,1.009094 33.668213,6.55896 45.581543,10.595215c11.913391,4.036194 26.416626,12.613281 32.632263,18.163086c6.215698,5.549866 9.841492,13.117859 9.841492,19.172241c0,6.054382 -1.553894,13.117798 -5.697693,18.667725c-4.143799,5.549805 -9.323486,6.054321 -13.467285,3.0271c-4.143799,-3.0271 -12.94928,-2.522644 -7.769592,-12.61322c5.179749,-10.090637 -0.517944,-19.172241 -17.093079,-24.722107c-16.575134,-5.549866 -51.279236,-15.640503 -80.285706,-17.65863c-29.006409,-2.018066 -32.632202,-1.009033 -32.632202,-1.009033c0,0 -5.311646,0.03363 -3.625854,6.054382c4.661743,16.649536 11.395386,41.87616 13.985291,49.948608c2.589844,8.072571 13.444702,28.650208 25.898621,40.362549c15.021179,14.126953 51.79718,35.821777 68.890259,49.948669c17.093079,14.126892 27.97052,31.785461 33.150269,42.380615c5.179688,10.595215 6.215637,11.604248 7.251587,17.658691c1.03595,6.054321 -1.553894,14.631348 -5.179749,14.126831c-3.625793,-0.504517 -8.805481,6.558899 -15.021179,-12.613281c-6.215637,-19.172241 -14.503235,-34.308167 -39.365906,-52.97583c-24.862671,-18.667664 -37.294006,-29.767395 -52.83313,-40.362549c-11.790222,-8.039001 -23.308777,-18.163147 -30.042419,-30.776428c-6.733643,-12.613281 -16.054749,-39.091309 -21.236816,-60.543823c-4.143799,-17.154053 -6.733643,-22.199402 -13.985291,-22.703918c-10.346008,-0.719788 -44.027649,1.009094 -58.012878,0.504517c-13.985229,-0.504517 -27.97052,-0.504517 -42.991699,-1.51355c-15.021179,-1.009094 -25.380615,-18.163147 -3.107849,-19.17218c22.272827,-1.009094 98.414734,0.504517 101.522583,0c3.107849,-0.504578 3.625793,-1.513611 2.071899,-5.045349c-1.553955,-3.531738 -5.697693,-18.667664 -6.733643,-21.190308c-1.03595,-2.522644 -7.769592,-0.504578 -14.503235,-1.513672c-6.733643,-1.008972 -19.164978,-7.567871 -33.150208,-44.398743c-13.985291,-36.83078 -33.150269,-27.24469 -33.150269,-27.24469c0,0 -2.589844,4.540771 -17.611023,5.045319c-15.021179,0.504517 -18.647034,-8.577026 -10.359436,-12.108765c8.287537,-3.531708 24.862671,-10.090637 36.776001,-11.604248c11.913391,-1.51355 24.344727,4.036285 29.00647,14.126923c4.661743,10.090607 18.646973,39.858032 22.790771,46.416931c4.143799,6.558899 3.285583,5.427368 6.215637,7.567932c6.215698,4.540771 7.251648,0 1.553955,-12.613281c-5.697693,-12.613281 -18.129028,-54.993958 -23.826721,-66.093658c-5.697693,-11.099701 -21.236877,-54.993927 -26.416626,-67.607208c-5.179688,-12.613312 6.733643,-22.199432 11.913391,-14.126923c5.179749,8.07251 6.482849,9.943237 6.482849,9.943237z" id="path3784" fill="#000000"/>
   <path d="m578.5625,395.803467c-16.028931,0.022034 -32.590088,0.730988 -49.0625,2.465576c-87.852936,9.25116 -257.641693,84.429443 -324.125,171.159119c-66.483307,86.729675 -5.9375,165.345215 -5.9375,165.345215c0,0 19.004776,33.539307 38,15.036926c18.995239,-18.502319 86.663116,-54.336731 113.96875,-65.900635c27.305664,-11.563965 72.419067,-24.282288 123.46875,8.096802c51.049683,32.379028 99.728577,38.140198 138.90625,38.140198c39.177673,0 83.096436,-32.366638 93.78125,-71.684082c10.684814,-39.317505 -9.50116,-72.853333 -14.25,-122.578308c-4.748779,-49.725037 7.12677,-95.982391 14.25,-127.205048c0,0 -59.541138,-12.971191 -129,-12.875763zm-47.125,110.79837c12.563782,0.056396 25.876831,4.96283 36.15625,14.367279c18.274475,16.718933 20.014648,41.345947 3.875,55.003479c-16.139648,13.657471 -44.038025,11.179016 -62.3125,-5.539917c-18.274475,-16.718994 -20.014618,-41.345947 -3.875,-55.003479c7.061096,-5.97522 16.384399,-8.871246 26.15625,-8.827362z" id="path4390" stroke-width="1px" stroke="#4c4c4c" fill="#000000"/>
   <path d="m385.84375,116.098488c-143.992599,0.260391 -274.139954,112.014 -314.625,193.136162c-45.737181,91.646149 -46.2735,182.688904 -15.40625,277.513336c30.867249,94.824463 64.097328,131.841675 78.34375,171.159119c14.246414,39.317505 28.502396,31.23053 38,31.23053c9.49762,0 29.666977,-9.247314 72.40625,15.036926c64.02478,36.378662 127.042877,58.960571 173.34375,58.960571c46.300873,0 85.479187,-8.078857 127.03125,-57.803894c41.552063,-49.724976 4.745544,-108.708191 -13.0625,-149.182068c-17.808044,-40.473816 -14.245544,-72.849487 3.5625,-107.541382c17.808044,-34.691833 66.965332,-59.222504 102.09375,-69.401154c42.032104,-12.179047 70.735901,-26.773315 104.833984,-41.630585c34.498718,-15.03186 35.257996,-33.527344 28.134766,-48.560486c-7.12323,-15.033173 -36.81488,-63.591644 -46.3125,-80.937622c-9.49762,-17.345917 -72.411011,-192.460358 -338.34375,-191.979454zm-72.375,531.832115c12.563812,0.056458 25.876862,4.96283 36.15625,14.36731c18.274475,16.718933 20.014618,41.345886 3.875,55.003418c-16.139618,13.657532 -44.038025,11.148621 -62.3125,-5.570313c-18.274475,-16.718994 -20.014618,-41.345947 -3.875,-55.003479c7.061096,-5.975159 16.384399,-8.84082 26.15625,-8.796936z" id="path4388" stroke="#a7a7a7" fill="#000000"/>
   <path d="m382.1875,125.230217c-72.443665,0 -139.150467,26.895027 -188.5625,54.486015c-12.580032,8.424866 -24.519928,17.384583 -35.71875,26.664658c50.470169,-32.370529 117.205109,-59.478027 196.8125,-59.478027c154.449005,0 248.726074,94.099747 304.96875,189.97049c42.567688,72.560425 44.69574,105.213531 40.3125,119.503937c12.952637,-5.60199 25.535339,-11.39032 38.8125,-17.228516c8.204468,-19.490692 4.102661,-66.080627 -77.8125,-176.212006c-35.17395,-47.289902 -129.955444,-137.706551 -278.8125,-137.706551z" id="path3790" fill="#000000"/>
   <path d="m644.518921,342.856201c27.920959,-11.553711 50.300171,-19.17514 64.263916,-24.355133c15.677124,-5.815643 24.765869,-16.643555 33.502991,1.487274c11.307068,23.463898 24.897095,50.043793 32.463074,61.819183c6.845154,10.653564 5.621277,26.876862 0.979736,34.969147c-6.983215,12.174866 -20.422363,19.601074 -28.417297,22.938538c-7.994873,3.337494 -48.281616,22.410583 -69.216858,29.722137c-12.127808,4.235596 7.85675,-8.704681 0.477234,-20.633087c-5.678894,-9.179596 -21.434814,-20.359802 -29.048218,-36.768982c-23.747498,-51.182983 -26.022156,-59.980286 -5.004578,-69.179077z" id="path3786" stroke-width="1px" stroke="#cecece" fill="#000000"/>
   <path d="m771.533691,383.509827c-16.945068,10.911652 -68.44165,35.676514 -97.689941,49.185852c-28.619812,13.213959 -122.779419,57.841736 -147.90625,69.522919c-25.126831,11.681183 -40.541901,16.69101 -50.25,26.147186c-9.708099,9.456238 -43.953705,44.484375 -55.375,57.834351c-11.421295,13.349915 -13.715729,16.702271 -16,23.377197c-2.284241,6.674988 -7.437042,16.120544 -13.71875,31.139221c-6.281708,15.018677 -29.118988,70.092041 -33.6875,82.885681c-4.568512,12.79364 -5.693512,14.463562 -1.125,22.251038c4.568512,7.787415 6.263672,3.345337 13.6875,5.570313c7.423828,2.224976 40.561127,18.362732 59.40625,23.925171c18.845123,5.562439 33.129913,6.121155 82.8125,3.896179c27.840332,-1.246826 52.278015,-3.401306 76.71875,-5.905151c2.359802,5.782898 9.08728,22.322266 15.5,39.357727c7.635437,20.28363 24.978943,59.502869 63.15625,69.644714c38.177307,10.141785 84.694885,12.845276 116.625,12.845276c31.930115,0 90.211121,-7.43634 104.09375,-12.845276c13.882629,-5.408936 42.264221,-13.032349 50,-41.914673c4.055908,-15.143066 1.884521,-24.641296 -2.079529,-34.257813c-3.372192,-8.180725 -21.002197,-0.188171 -17.214478,9.484558c5.851868,14.944092 -0.165161,28.139954 -17.518494,38.957886c-17.353333,10.817932 -72.868103,20.302917 -119.375,20.302917c-46.506897,0 -81.211121,-3.383362 -95.09375,-6.08783c-13.882629,-2.704529 -39.572815,-14.213928 -54.84375,-49.372253c-10.679626,-24.587646 -17.382874,-40.699341 -20.59375,-48.489502c11.816162,-1.285034 23.861023,-2.618835 36.53125,-3.957092c47.398315,-5.006226 105.649597,-18.381409 158.1875,-32.843811c52.537903,-14.462341 106.780334,-42.821533 119.34375,-53.390198c12.563416,-10.568665 26.989502,-21.739502 24.5625,-37.835815c-0.954895,-6.333191 -4.35675,-7.787048 -9,-6.97052c-4.042908,0.710938 -6.90387,5.538879 -17.125,15.98053c-22.553833,23.040283 -42.838013,29.990234 -63.15625,38.566345c-10.721863,4.525574 -49.937378,19.373474 -112.4375,33.604736c-62.500122,14.231323 -130.665955,22.524963 -140.40625,22.524963c-9.740295,0 -8.989319,-4.595459 -11.1875,-9.679626c-2.75531,-6.37262 -2.791504,-7.77179 -3.4375,-10.86676c-0.97699,-4.680847 -0.55127,-6.331787 6.09375,-6.727051c11.754578,-0.69928 86.424683,-10.110046 110.21875,-14.489014c45.737793,-8.417419 86.735352,-20.703735 103.375,-25.842834c37.068909,-12.061035 65.58667,-24.19574 96.75,-43.436584c10.69458,-6.941772 21.536377,-15.834778 28,-25.660156c6.985107,-10.618103 -0.266968,-24.588623 -12.8125,-35.400696c-12.096863,-10.425415 -21.71875,-4.458313 -21.71875,0.547913c0,5.006226 2.303467,8.356506 9.15625,13.362732c6.852783,5.006226 5.693542,11.671509 1.125,18.90271c-4.568481,7.231201 -11.389404,11.138367 -30.96875,21.733521c-19.579346,10.595154 -63.630371,25.974487 -95.71875,36.039917c-32.088379,10.06543 -63.075684,15.882202 -88.09375,20.120239c-25.018066,4.238037 -94.641846,11.664001 -103.34375,12.723572c-8.701965,1.059509 -15.762024,4.21991 -17.9375,-0.547913c-2.175476,-4.767822 -2.198914,-7.922913 -7.09375,-23.28595c-4.894836,-15.362976 -53.970337,-125.268005 -57.0625,-132.044861c-3.092163,-6.776794 -2.310913,-7.503967 0.78125,-9.009949c3.092163,-1.505981 8.563232,-4.231384 31.34375,-14.093323c22.780518,-9.861938 72.296936,-37.550507 123.1875,-59.995483c33.792725,-14.904053 100.86438,-45.586639 120.242432,-62.820099c7.499268,-6.669281 0.084045,-23.619598 -16.92749,-12.665131zm-280.596191,164.245667c1.394653,0.025024 2.432648,0.833496 2.84375,2.43512c0.939636,3.661072 23.474426,51.688354 34.75,77.315369c11.275574,25.627014 23.965576,59.499146 25.375,63.617737c1.409424,4.118591 4.731323,8.943909 -2.8125,9.618774c-4.384949,0.392273 -11.74823,7.31958 -26.3125,-12.358276c-14.564301,-19.677917 -23.016327,-32.035767 -29.59375,-39.357788c-6.577423,-7.32196 -12.216949,-15.113708 -26.78125,-21.520447c-14.564301,-6.406799 -31.491455,-13.724976 -35.25,-15.097778c-3.758545,-1.372864 -8.453491,-3.639221 -1.40625,-9.588318c7.047241,-5.949158 24.919373,-25.641541 32.90625,-33.878723c7.986877,-8.237244 19.71875,-17.380737 19.71875,-17.380737c2.378448,-2.574158 4.769379,-3.837097 6.5625,-3.804932zm-70.1875,84.285889c0.506409,0.031921 1.040863,0.185852 1.625,0.456604c7.227631,3.349854 34.474426,16.114746 39.84375,18.293884c5.369324,2.179199 11.169006,9.574524 23.25,25.264465c12.080994,15.690002 27.744324,37.484436 32.21875,40.971069c4.474426,3.486633 13.863647,8.724976 22.8125,7.853271c8.948853,-0.871643 27.30542,-4.789978 30.4375,3.926636c3.13208,8.716675 6.71875,18.742188 6.71875,20.485535c0,1.743347 2.221619,5.22583 -4.9375,5.661682c-7.159119,0.435852 -64.862183,3.054993 -82.3125,3.926636c-17.450317,0.871704 -32.234344,3.043945 -56.84375,-6.544373c-24.609406,-9.588318 -42.931824,-15.698303 -47.40625,-17.44165c-4.474426,-1.743347 -11.201721,-1.29364 -4.9375,-15.676147c6.264221,-14.382446 24.170441,-57.954651 27.75,-66.235474c3.579559,-8.280823 3.676208,-8.592285 5.125,-12.419189c1.372284,-3.624756 3.111359,-8.746887 6.65625,-8.522949z" id="path2990" fill="#000000"/>
   <path d="m854.17041,646.984131c-1.789795,5.665833 -1.789795,11.217773 0.447449,12.525269c2.237183,1.307495 11.04657,0.028137 25.504272,47.941711c3.591003,11.900635 10.291199,68.861633 10.291199,84.551636c0,15.690063 0.447449,78.01416 -0.894836,81.500854c-1.342346,3.486694 -3.132141,8.716675 2.684631,8.280823c5.816772,-0.435791 11.633545,-1.307495 15.660522,-6.537476c4.027039,-5.230042 1.789795,-48.377502 1.789795,-85.42334c0,-37.045898 -6.264221,-77.142517 -14.318176,-98.934204c-8.054016,-21.791626 -14.765686,-40.968323 -22.372192,-46.634155c-7.606567,-5.665894 -17.432251,-1.57782 -18.792664,2.728882z" id="path3780" fill="#000000"/>
   <path d="m702.529541,443.329712c0,0 11.77832,-3.705566 7.140076,-14.247253c-2.940552,-6.683319 -6.184265,-9.412231 -11.982056,-8.659241c-4.597534,0.597076 -4.251709,-1.505981 -8.116882,-7.529816c-3.865234,-6.023834 -8.503418,-12.047638 -1.932617,-16.189026c8.29248,-5.226471 16.233826,-7.906281 19.712463,-9.788727c3.478699,-1.882446 4.638245,2.635437 7.730408,7.15329c3.716858,5.053314 4.644531,10.792236 10.435974,9.412231c6.325134,-1.507172 11.641113,1.594696 14.687744,9.035736c2.241089,5.473755 4.373535,11.354034 -5.289429,16.624878c-7.295593,3.979523 -18.531921,10.105865 -23.943176,13.117798c-5.411316,3.011902 -8.442505,1.070129 -8.442505,1.070129z" id="path3788" stroke-miterlimit="4" stroke-width="2.2" stroke="#cecece" fill-opacity="0.529412" fill="#000000"/>
   <path d="m748.809814,420.098389c0,0 11.413391,-3.59314 6.918884,-13.815033c-2.849487,-6.48056 -5.992737,-9.126709 -11.61084,-8.396545c-4.455139,0.578949 -4.119995,-1.460327 -7.865417,-7.301392c-3.745422,-5.841095 -8.23999,-11.68219 -1.872742,-15.697937c8.035583,-5.067932 14.388489,-5.487274 17.759399,-7.312592c3.370911,-1.825378 4.494507,2.55545 7.490845,6.936279c3.601746,4.900024 2.263428,10.464874 7.875427,9.126709c6.129211,-1.461456 10.385559,1.982147 13.337769,9.197449c2.171692,5.307709 2.448303,9.266266 -5.572937,14.377228c-6.781799,4.321198 -13.035889,8.927643 -18.27948,11.848175c-5.243652,2.920563 -8.180908,1.037659 -8.180908,1.037659z" id="path3796" stroke-miterlimit="4" stroke-width="2.2" stroke="#cecece" fill-opacity="0.529412" fill="#000000"/>
   <path d="m382.900116,659.095337c0,0 -1.879272,-1.372803 -6.577423,1.830505c-4.698151,3.203369 -13.154846,32.033813 -15.973755,37.525269c-2.818878,5.491516 -4.698151,12.355896 -1.879272,16.016846c2.818909,3.661011 11.745422,9.152527 17.853027,8.237305c6.107605,-0.915283 7.986877,-6.86438 12.685028,-5.949158c4.698181,0.915283 17.383209,7.322021 24.43045,10.067749c7.047241,2.745789 36.64566,10.525391 48.391052,-6.86438c11.745392,-17.389771 -1.879272,-32.033752 -17.853027,-38.440491c-15.973724,-6.406738 -33.826752,-11.898254 -37.115448,-13.271118c-3.288727,-1.372864 -5.167999,2.288147 -9.86615,2.745728c-4.698151,0.457642 -8.456696,-0.457581 -12.21521,-4.118591c-3.758545,-3.661011 -1.879272,-7.779663 -1.879272,-7.779663z" id="path3860" stroke-miterlimit="4" stroke-width="2.2" stroke="#cecece" fill-opacity="0.531073" fill="#000000"/>
   <path d="m446.27948,711.666687c-2.57486,8.178772 -13.008087,12.312622 -23.298615,9.231445c-10.290527,-3.081238 -16.5383,-12.209717 -13.951996,-20.385132c2.57486,-8.178772 13.008087,-12.312683 23.298615,-9.231445c10.290527,3.081177 16.5383,12.209717 13.951996,20.385132z" id="path3862" fill-rule="nonzero" fill="#000000"/>
  </g>
 </g>
</svg>