<?xml version="1.0" encoding="iso-8859-1"?>
<!-- Generator: Adobe Illustrator 19.0.0, SVG Export Plug-In . SVG Version: 6.00 Build 0)  -->
<svg version="1.1" id="Layer_1" xmlns="http://www.w3.org/2000/svg" xmlns:xlink="http://www.w3.org/1999/xlink" x="0px" y="0px"
	 viewBox="0 0 495 495" style="enable-background:new 0 0 495 495;" xml:space="preserve">
<g>
	<polygon style="fill:#FFCD00;" points="330,448.08 495,495 495,345.64 330,298.72 	"/>
	<path style="fill:#FFDA44;" d="M397.019,208.32L330,292.581v6.139l165,46.92V196.28l-81.459-23.164
		C410.815,185.892,405.177,198.004,397.019,208.32z"/>
	<path style="fill:#FFCD00;" d="M330,0v70c47.094,0,85.415,38.313,85.415,85.415c0,5.967-0.637,11.902-1.874,17.701L495,196.28
		V46.92L330,0z"/>
	<polygon style="fill:#FFDA44;" points="164.99,345.64 164.99,495 330,448.08 330,298.72 	"/>
	<path style="fill:#FFE477;" d="M246.46,173.114l-81.47,23.166v149.36L330,298.72v-6.139l-66.987-84.221
		C254.833,198.016,249.187,185.894,246.46,173.114z"/>
	<path style="fill:#FFDA44;" d="M246.46,173.114c-1.238-5.799-1.875-11.734-1.875-17.699C244.585,108.313,282.898,70,330,70V0
		L164.99,46.92v149.36L246.46,173.114z"/>
	<polygon style="fill:#FFCD00;" points="0,298.72 0,448.08 164.99,495 164.99,345.64 	"/>
	<polygon style="fill:#FFDA44;" points="164.99,196.28 0,149.36 0,298.72 164.99,345.64 	"/>
	<polygon style="fill:#FFCD00;" points="164.99,46.92 0,0 0,149.36 164.99,196.28 	"/>
	<path style="fill:#CD2A00;" d="M361.842,155.415c0,17.553-14.289,31.842-31.842,31.842v105.324l67.019-84.261
		c8.158-10.315,13.797-22.427,16.522-35.204c1.237-5.799,1.874-11.734,1.874-17.701C415.415,108.313,377.094,70,330,70v53.573
		C347.553,123.573,361.842,137.854,361.842,155.415z"/>
	<path style="fill:#D8D7DA;" d="M361.842,155.415c0-17.561-14.289-31.842-31.842-31.842v63.683
		C347.553,187.257,361.842,172.968,361.842,155.415z"/>
	<path style="fill:#FF3501;" d="M244.585,155.415c0,5.966,0.637,11.9,1.875,17.699c2.728,12.78,8.373,24.902,16.554,35.245
		L330,292.581V187.257c-17.561,0-31.842-14.289-31.842-31.842c0-17.561,14.281-31.842,31.842-31.842V70
		C282.898,70,244.585,108.313,244.585,155.415z"/>
	<path style="fill:#FFFFFF;" d="M330,123.573c-17.561,0-31.842,14.281-31.842,31.842c0,17.553,14.281,31.842,31.842,31.842V123.573z
		"/>
</g>
<g>
</g>
<g>
</g>
<g>
</g>
<g>
</g>
<g>
</g>
<g>
</g>
<g>
</g>
<g>
</g>
<g>
</g>
<g>
</g>
<g>
</g>
<g>
</g>
<g>
</g>
<g>
</g>
<g>
</g>
</svg>
